<svg width="466" height="441" viewBox="0 0 466 441" fill="none" xmlns="http://www.w3.org/2000/svg">
<path d="M86.4633 92.6379C96.9883 87.7862 109.189 89.9214 120.21 96.6914C131.249 103.472 141.385 115.038 148.152 129.718C154.919 144.399 157.13 159.618 155.117 172.416C153.106 185.193 146.806 195.857 136.281 200.708C125.756 205.56 113.555 203.425 102.534 196.655C91.4954 189.874 81.3588 178.308 74.5917 163.628C67.8247 148.948 65.6138 133.728 67.6273 120.93C69.6377 108.153 75.9384 97.4896 86.4633 92.6379Z" fill="#8B5CF6" stroke="white" stroke-width="5"/>
<path d="M158.576 5.71963C169.895 3.23066 181.357 7.92529 190.676 16.8953C200.009 25.8798 207.438 39.3459 210.91 55.1334C214.381 70.9209 213.287 86.2613 208.583 98.3324C203.887 110.384 195.452 119.454 184.133 121.943C172.814 124.432 161.352 119.737 152.034 110.767C142.7 101.783 135.271 88.3167 131.8 72.5292C128.328 56.7416 129.423 41.4013 134.126 29.3301C138.822 17.2784 147.257 8.20859 158.576 5.71963Z" fill="#8B5CF6" stroke="white" stroke-width="5"/>
<path d="M283.875 4.91816C295.245 7.1661 303.871 16.0547 308.821 28.0039C313.78 39.9724 315.201 55.2861 312.065 71.1438C308.93 87.0015 301.789 100.622 292.648 109.803C283.522 118.969 272.163 123.906 260.793 121.658C249.424 119.41 240.798 110.522 235.847 98.5724C230.888 86.6039 229.468 71.2903 232.604 55.4326C235.739 39.5749 242.88 25.954 252.021 16.7732C261.146 7.60729 272.506 2.67023 283.875 4.91816Z" fill="#8B5CF6" stroke="white" stroke-width="5"/>
<path d="M356.543 92.1388C366.998 97.1388 373.147 107.891 374.977 120.695C376.81 133.52 374.384 148.706 367.41 163.289C360.436 177.872 350.137 189.294 339.004 195.918C327.888 202.532 315.658 204.494 305.203 199.494C294.748 194.494 288.598 183.743 286.769 170.939C284.936 158.114 287.362 142.927 294.336 128.344C301.31 113.761 311.609 102.339 322.742 95.7149C333.858 89.1014 346.087 87.1389 356.543 92.1388Z" fill="#8B5CF6" stroke="white" stroke-width="5"/>
<path d="M180.243 164.641C196.024 128.213 247.253 127.038 264.688 162.704L273.063 179.839C278.493 190.946 284.954 201.52 292.36 211.419L301.826 224.072C324.693 254.637 298.269 297.398 260.704 290.618C241.403 287.134 221.656 286.879 202.271 289.863L192.286 291.399C150.852 297.777 123.293 249.801 149.676 217.222C160.79 203.497 169.985 188.322 177.005 172.116L180.243 164.641Z" fill="#8B5CF6" stroke="white" stroke-width="5"/>
<path d="M110.545 93.792V93.792C121.479 91.5454 129.614 82.3464 130.506 71.2202L132.545 45.792" stroke="white"/>
<path d="M347.926 89.627V89.627C337.145 91.2399 326.592 85.5486 322.017 75.6541L311.541 52.9996" stroke="white"/>
<path d="M187.985 17.5L195.971 21.4913C212.255 29.6294 231.51 29.1835 247.399 20.3005L255.985 15.5" stroke="white"/>
<path d="M114 203.397L114.72 203.737C130.458 211.16 140.499 226.998 140.5 244.399V244.399" stroke="white"/>
<path d="M329.813 201.86V201.86C315.31 205.485 306.286 219.949 309.406 234.569L309.737 236.121" stroke="white"/>
<path d="M141.416 223.236C141.391 221.871 141.24 220.962 141.037 220.289C140.936 220.023 140.834 219.819 140.746 219.667C140.707 219.591 140.682 219.516 140.656 219.438" stroke="white" stroke-width="12" stroke-linecap="round"/>
<path d="M139.821 218.831C139.417 217.921 138.762 216.764 138.454 216.086C138.299 215.744 138.328 215.415 138.139 215.124C137.949 214.832 137.619 214.857 137.493 214.782C137.221 214.619 137.189 214.2 136.961 213.896C136.758 213.624 136.607 213.289 136.341 212.985C136.276 212.91 136.227 212.833 136.252 212.895C136.358 213.165 136.53 213.438 136.568 213.527C136.678 213.781 136.075 213.137 135.81 212.896C135.544 212.655 135.316 212.378 134.987 212.01C134.726 211.719 134.557 211.39 134.291 211.149C134.022 210.906 133.873 210.555 133.67 210.251C133.468 209.947 133.015 209.443 132.62 209.124C132.551 209.068 133.51 209.034 134.912 208.984C136.826 208.916 137.714 208.454 138.225 208.263C138.76 208.062 139.566 207.82 140.509 207.556C142.511 206.995 143.946 206.731 144.136 206.656C144.511 206.506 144.78 206.074 145.262 205.569C146.38 204.395 147.137 202.884 147.137 202.795C147.138 202.689 146.684 203.008 146.041 203.261C144.207 203.981 142.809 204.021 142.708 204.273C142.336 205.2 142.655 205.969 142.808 206.652C143.057 207.769 143.567 208.501 143.744 209.057C143.829 209.322 143.77 209.785 143.808 210.03C143.845 210.275 143.921 210.3 144.009 210.275C144.215 210.218 144.427 209.972 144.918 209.544C145.853 208.728 146.68 207.999 146.97 207.506C147.175 207.159 147.263 206.859 147.389 206.631C147.445 206.531 147.466 206.454 146.852 207.23C146.238 208.005 144.985 209.634 144.277 210.611C143.168 212.142 143.188 212.526 142.961 213.65C142.911 213.895 142.885 213.969 142.909 213.895C143.009 213.596 143.463 212.737 144.145 211.65C144.439 211.181 144.677 210.913 145.232 210.157C145.786 209.401 146.664 208.173 147.479 207.115C148.294 206.056 149.021 205.204 149.922 204.326C150.822 203.449 151.875 202.572 152.442 202.082C153.076 201.536 153.587 200.538 154.321 199.133C154.583 198.633 154.604 198.556 154.53 198.642C154.255 198.96 153.196 199.914 151.704 201.015C150.514 201.892 149.925 202.198 148.787 202.263C148.478 202.281 148.328 202.149 148.201 202.036C148.14 201.981 148.125 201.897 148.124 201.821C148.123 201.508 148.401 201.214 148.907 200.531C149.313 199.984 149.894 199.543 150.464 198.987C150.869 198.591 151.237 198.1 151.793 197.393C152.047 197.068 152.275 196.859 152.715 196.369C153.699 195.272 154.478 194.505 154.679 194.265C155.227 193.614 155.842 193.165 156.652 192.632C157.033 192.382 157.363 192.1 157.641 191.835C157.765 191.716 157.868 191.645 157.92 191.819C158.091 192.397 157.721 193.61 157.254 194.887C156.58 196.097 156.327 196.452 156.201 196.679C156.125 196.806 156.025 196.956 155.845 197.187" stroke="white" stroke-width="12" stroke-linecap="round"/>
<path d="M158.738 185.809C158.739 186.013 158.446 186.335 158.531 186.264C160.99 184.211 163.039 181.363 163.199 181.303C164.79 180.707 163.159 185.801 162.806 186.861C162.656 187.312 163.942 185.697 164.545 185.413C165.617 184.909 163.775 187.852 163.103 188.744C162.842 189.09 162.72 189.202 162.617 188.841C161.885 186.284 162.453 184.324 163.02 182.256C163.976 178.768 165.088 176.564 165.016 176.387C164.568 175.288 162.813 178.573 161.715 179.469C160.326 180.603 161.984 175.987 162.132 173.805C162.169 173.262 162.104 172.739 162.074 172.644C161.997 172.396 161.291 175.283 160.252 178.225C159.926 179.147 159.937 178.879 160.097 178.136C160.519 176.171 160.874 174.547 161.106 172.774C161.289 171.375 161.686 168.973 161.88 167.56C162.285 164.61 162.513 162.548 162.658 161.481C162.863 159.979 163.215 157.634 163.288 156.594C163.408 154.883 162.866 153.887 162.514 153.008C162.226 152.289 161.9 151.662 161.65 150.9C161.425 150.215 161.256 149.321 161.108 148.355C160.94 147.248 160.845 146.129 160.888 145.808C160.927 145.517 161.63 145.107 163.564 144.247C164.947 143.633 167.266 142.953 168.734 142.536C170.203 142.119 170.783 142.061 171.11 143.103C171.438 144.145 171.495 146.289 171.511 147.886C171.536 150.468 171.496 151.744 171.497 153.631C171.497 155.257 171.381 158.241 171.221 160.3C171.06 162.358 170.828 163.401 170.477 165.315C170.126 167.228 169.662 169.981 169.395 171.471C169.013 173.592 168.051 176.075 167.46 177.845C167.343 178.196 167.169 178.66 167.804 177.783C168.439 176.906 169.887 174.676 171.068 172.15C172.249 169.625 173.118 166.873 173.725 164.644C174.766 160.822 175.008 158.889 175.066 158.436C175.171 157.624 175.388 156.987 175.567 155.733C175.741 154.513 175.854 153.561 175.658 152.532C175.575 152.102 175.496 151.767 175.393 151.504C175.344 151.376 175.153 151.346 175.074 151.595C174.829 152.36 174.948 153.236 174.879 153.745C174.822 154.158 175.084 152.47 175.615 149.026C175.858 147.451 176.283 146.269 176.748 144.28C177.212 142.29 177.762 139.539 178.091 137.984C178.579 135.682 178.882 134.765 179.184 133.908C179.286 133.618 178.982 133.556 178.589 133.533C177.646 133.476 176.528 133.555 175.19 133.693C173.388 133.879 172.171 134.34 171.847 134.894C171.291 135.847 170.967 137.021 170.458 138.365C169.864 139.928 169.623 141.149 169.438 141.174C167.983 141.371 168.375 137.366 167.702 135.228C167.634 135.012 167.538 135.31 167.469 135.176C167.399 135.043 167.308 134.493 167.192 134.393C167.076 134.293 166.938 134.659 166.776 134.573C165.739 134.024 166.01 133.467 165.871 132.91C165.845 132.804 165.824 133.087 165.778 133.045C165.732 133.003 165.64 132.636 165.57 132.562C165.5 132.488 165.454 132.717 165.385 132.698C165.315 132.678 165.224 132.403 165.108 132.422C164.992 132.44 164.854 132.761 164.737 132.789C164.423 132.864 164.297 132.167 164.043 132.097C163.928 132.065 163.834 132.256 163.741 132.235C162.984 132.065 162.768 131.055 162.537 131.008C162.435 130.987 162.397 131.236 162.328 131.239C162.086 131.248 161.935 130.64 161.703 130.361C161.636 130.28 161.564 130.449 161.494 130.429C161.425 130.408 161.333 130.224 161.263 130.199C161.193 130.173 161.147 130.31 161.078 130.29C160.513 130.12 160.222 129.574 159.898 129.365C159.169 128.894 159.663 131.561 159.894 132.163C160.231 133.04 160.958 133.781 161.376 135.285C162.217 138.307 161.564 140.362 161.333 140.571C161.228 140.666 161.011 140.459 160.871 140.25C159.775 138.623 159.619 135.782 159.365 134.168C158.989 131.774 157.908 129.396 157.283 127.938C156.892 127.026 156.84 126.426 156.285 125.224C156.137 124.901 156.053 124.622 156.075 124.824C156.096 125.026 156.234 125.714 156.488 127.307C156.743 128.899 157.109 131.375 157.344 132.765C157.683 134.774 157.811 135.221 157.903 135.567C157.947 135.731 157.996 135.868 157.836 135.595C156.689 133.636 156.565 130.841 156.353 129.321C156.194 128.18 155.867 126.981 155.659 126.171C155.322 124.861 154.43 123.369 154.177 122.812C153.923 122.255 153.644 121.702 153.32 121.145C152.989 120.575 151.982 119.898 151.12 119.13C150.403 118.492 152.945 119.059 153.409 119.128C153.551 119.196 153.505 119.334 153.413 119.428C153.32 119.522 153.183 119.567 152.763 119.476" stroke="white" stroke-width="12" stroke-linecap="round"/>
<path d="M150.123 118.781C149.385 117.029 148.275 114.621 147.763 113.781C147.381 113.156 146.791 112.531 146.35 111.998C145.928 111.487 144.804 110.683 143.874 109.729C143.122 108.959 142.12 107.49 141.371 106.556C140.81 105.855 140.122 104.614 138.92 102.878C138.397 102.124 138.038 101.324 137.551 100.674C136.872 99.7688 136.232 99.2843 135.445 98.5444C134.822 97.9597 133.92 97.0195 132.967 96.0434C132.449 95.5133 131.924 95.0243 131.368 94.5832C130.79 94.1247 130.488 93.4959 130.094 92.9395C129.667 92.3359 129.146 91.9203 128.589 91.5493C128.449 91.4562 128.312 91.3645 128.241 91.2485C127.963 90.7934 128.54 90.1613 128.886 89.6278C129.226 89.105 129.512 88.6329 129.79 88.2599C130.177 87.7412 129.607 89.461 129.444 90.2481C129.321 90.8433 129.19 91.4062 128.613 92.9311C128.374 93.5619 128.033 93.8627 127.755 93.9788C127.616 94.0031 127.478 93.9572 127.339 93.9336C127.199 93.91 127.061 93.91 126.781 93.771" stroke="white" stroke-width="12" stroke-linecap="round"/>
<path d="M171.104 138.789C169.948 137.494 169.392 136.846 168.03 135.46C167.164 134.578 166.477 133.884 165.941 133.256C165.473 132.707 164.671 131.939 163.904 131.265C163.189 130.636 162.723 129.899 160.183 127.498C159.334 126.694 158.927 126.009 158.461 125.406C158.36 125.275 160.984 125.678 165.283 126.532C167.351 126.943 169.122 127.615 170.938 127.922C174.504 128.525 176.521 128.275 176.821 128.322C177.897 128.488 179.39 128.137 180.339 127.906C181.802 127.55 183.186 127.351 185.66 126.795C186.886 126.52 187.727 126.192 188.331 125.984C189.006 125.751 189.811 125.406 190.53 125.058C191.1 124.782 193.223 124.021 195.888 123.324C196.697 123.112 196.489 123.636 196.187 124.009C195.886 124.382 195.519 124.703 194.367 125.464C193.215 126.226 191.289 127.418 190.022 128.376C186.883 130.749 186.574 132.534 185.973 133.851C185.361 135.194 183.667 137.797 182.384 139.664C181.415 141.076 180.694 142.535 180.391 143.256C180.089 143.974 179.904 144.713 179.604 146.055C179.357 147.153 179.349 148.462 179.278 149.576C179.231 150.336 178.932 150.966 178.723 151.386C178.191 152.459 179.576 148.426 180.133 147.569C180.953 146.305 182.216 144.766 183.003 143.771C183.708 142.881 184.904 142.126 186.589 140.924C186.966 140.655 187.171 140.642 187.288 140.71C187.406 140.779 187.452 140.962 186.169 142.592C184.885 144.223 182.272 147.295 180.788 149.13C178.427 152.048 178.376 153.05 178.19 153.493C178.104 153.7 178.28 152.55 178.742 151.51C179.154 150.583 180.174 149.311 182.157 147.189C183.364 145.897 185.148 144.333 186.16 143.437C187.864 141.93 188.838 141.245 190.087 140.39C191.33 139.539 193.415 138.517 194.697 138.003C195.442 137.705 197.211 136.849 199.387 135.947C200.959 135.295 202.082 134.576 203.354 134.09C204.997 133.464 206.347 133.185 207.152 133.001C208.652 132.659 209.774 132.306 210.74 131.777C211.526 131.347 212.898 130.561 214.202 129.746C216.736 128.165 218.157 127.027 218.344 126.657C218.528 126.292 216.824 126.652 214.427 127.068C212.868 127.339 210.563 127.393 208.488 127.395C206.413 127.397 204.625 127.259 202.924 127.211C201.224 127.163 199.665 127.209 198.862 127.141C198.059 127.073 198.059 126.89 198.173 126.451C198.288 126.013 198.517 125.325 199.14 124.054C200.682 120.904 201.856 118.876 202.017 118.46C202.436 117.381 203.288 116.564 203.869 115.981C204.585 115.262 205.65 114.015 206.323 113.18C207.281 111.991 208.151 110.911 208.755 110.146C209.405 109.324 209.913 108.641 211.691 106.839C212.09 106.462 212.228 106.371 212.345 106.255C212.461 106.139 212.553 106.001 212.787 105.859" stroke="white" stroke-width="12" stroke-linecap="round"/>
<path d="M225.83 41.2707C225.55 41.1778 223.317 40.4319 221.285 40.0281C220.496 39.8714 219.737 39.7705 218.728 39.164C216.381 37.7522 215.841 36.5817 215.021 36.2292C214.311 35.9239 213.824 35.5038 213.425 34.9634C213.03 34.4284 212.464 34.0487 211.901 33.7898C211.297 33.5124 210.915 33.1101 210.634 32.8758C210.503 32.7666 210.353 32.7344 210.653 32.7569C212.848 32.9217 213.959 33.2494 215.691 33.7631C217.047 34.1652 218.552 34.2345 219.585 34.2113C220.072 34.2003 218.093 33.8602 217.179 33.7891C216.821 33.7612 216.497 33.6251 216.402 33.5316C215.662 32.8083 218.18 33.5309 218.908 33.6477C220.047 33.8305 220.62 33.9052 221.418 33.9762C222.048 34.0325 222.869 34.2345 223.576 34.0712C223.893 33.9982 224.186 33.8123 224.073 33.8123C223.774 33.8123 222.985 33.8123 222.787 33.7891C222.558 33.7621 224.227 33.6716 225.284 33.6484C225.773 33.6376 223.308 33.6716 222.174 33.5548C221.801 33.5164 221.469 33.438 221.374 33.2973C220.666 32.2477 224.606 33.9052 225.966 33.9298C226.838 33.9456 227.517 33.4844 227.566 33.4141C227.619 33.3368 227.15 33.3901 227.145 33.3901C224.991 33.3901 232.536 32.6865 232.957 32.6633C233.292 32.6448 231.479 33.8461 228.956 35.94C227.848 36.8601 227.848 37.7948 227.66 38.8024C227.207 41.2331 227.378 42.3908 227.215 43.3316C227.091 44.0462 226.722 44.7381 226.534 45.3495C226.261 46.2404 225.878 48.0169 225.807 49.0309C225.792 49.2434 225.737 49.4748 225.69 49.7338C225.643 49.9927 225.596 50.2713 225.735 49.7183C226.221 47.7776 227.091 45.2222 227.959 43.4638C228.593 42.1781 228.737 40.992 229.065 40.4284C229.235 40.1368 229.627 39.7255 230.003 39.4891C230.092 39.4327 230.007 39.9028 229.402 41.3248C228.797 42.7468 227.682 45.2081 227.085 46.5457C226.197 48.5331 225.459 50.4064 224.894 51.7743C224.563 52.5753 224.89 53.6487 225.009 55.7103C225.123 57.6793 225.219 59.9362 225.244 60.9213C225.271 62.0053 225.034 63.4994 224.612 65.9585C224.428 67.0305 224.189 68.329 223.885 69.2718C223.599 70.1544 223.252 71.287 222.83 72.5296C222.39 73.8254 221.985 74.4308 221.587 75.3462C221.505 75.5332 221.33 75.5594 221.188 75.5136C220.338 75.2385 220.015 73.9214 219.85 71.4453C219.586 67.4918 219.405 65.5286 219.334 64.4936C219.266 63.5032 219.123 62.5706 218.935 61.6087C218.791 60.8706 218.653 59.9447 218.513 59.239C218.353 58.4342 218.231 57.786 217.951 56.7784C217.542 55.3068 217.294 54.5493 216.989 53.9147C216.636 53.1791 216.449 52.2049 216.028 51.2888C215.603 50.366 215.231 49.2018 214.855 48.5672C214.438 47.8626 214.012 47.1839 213.589 46.5035C213.211 45.897 213.072 45.2137 212.884 44.4165C212.734 43.7792 212.276 43.1507 212.017 42.4225C211.956 42.2532 211.853 42.1178 213.036 44.1126C214.219 46.1073 216.68 50.2404 218.111 52.7643C219.96 56.0264 220.34 57.4482 220.552 58.5016C220.732 59.4005 220.716 60.4499 220.88 62.4327C220.994 63.8089 220.998 65.948 221.045 67.2109C221.092 68.4739 221.138 68.799 221.185 70.499C221.233 72.1989 221.279 75.2639 221.28 76.9124C221.281 78.9879 221.045 79.6375 220.905 80.249C220.756 80.9036 220.671 81.6555 220.506 82.4056C220.285 83.4168 220.156 84.5601 219.897 85.6887C219.522 87.3234 218.608 89.7218 218.349 90.4979C218.094 91.2639 217.716 92.162 216.407 95.6449C215.413 98.2908 215.324 99.5696 215.136 100.419C214.937 101.319 214.713 102.339 214.432 103.957C214.359 104.376 215.967 104.456 218.284 104.409C220.189 104.371 221.742 103.988 222.844 103.544C224.205 102.996 224.465 100.062 224.727 97.4271C224.822 96.481 225.031 95.2691 225.15 93.9766C225.281 92.5446 225.314 91.9326 225.384 90.1658C225.449 88.5394 225.408 85.4269 225.385 83.7544C225.35 81.2857 225.174 79.9725 224.986 79.3857C224.876 79.0402 225.309 81.0729 226.501 85.8202C227.139 88.3625 228.203 91.0784 228.775 92.6292C229.753 95.2804 230.285 96.5722 230.45 97.7867C230.474 99.6935 230.428 101.077 230.334 101.358C230.287 101.499 230.24 101.638 229.911 101.782" stroke="white" stroke-width="12" stroke-linecap="round"/>
<path d="M217.527 125.423C216.97 125.052 215.894 124.489 214.372 123.671C212.892 122.874 211.485 121.119 210.125 119.338C209.363 118.339 209.178 117.826 209.224 117.452C209.303 116.81 210.391 115.908 212.746 113.715C214.453 112.125 217.375 109.758 218.766 108.909C220.156 108.06 219.97 108.849 219.503 109.883C218.437 112.241 216.413 114.902 216.698 115.69C217.223 117.141 222.045 112.252 224.334 110.677C228.059 108.114 229.345 107.273 229.979 106.943C231.003 106.409 231.739 106.239 231.997 106.308C232.428 106.423 232.303 107.221 232.28 107.735C232.253 108.346 231.698 109.792 229.532 113.57C227.959 116.313 224.904 120.414 223.327 122.636C221.419 125.326 221.234 125.983 220.929 126.547C220.614 127.13 220.297 127.813 219.897 128.727C219.811 128.924 219.965 129.079 220.338 129.151C220.711 129.223 221.361 129.223 221.765 129.13C223.24 128.792 224.046 126.741 224.865 125.896C225.386 125.359 225.501 124.582 228.538 120.537C229.519 119.231 229.956 118.531 230.355 117.781C230.875 116.803 230.941 115.998 231.317 115.434C231.8 114.709 232.489 113.794 232.818 113.136C232.922 112.927 233.19 112.716 233.402 112.62C234.151 112.28 234.974 112.71 235.492 113.062C235.979 113.392 235.914 114.163 236.733 115.1C238.152 116.726 241.586 118.055 242.293 118.433C242.966 118.793 243.418 119.696 244.051 120.378C244.835 121.224 245.762 121.48 246.559 121.95C247.957 122.775 249.275 123.121 250.196 123.569C250.852 123.888 251.625 124.109 255.063 125.535C257.02 126.346 258.287 127.109 259.108 127.486C259.737 127.774 261.141 128.608 262.713 129.498C263.231 129.791 262.939 130.11 262.61 130.276C262.282 130.442 261.864 130.534 260.348 130.652C258.833 130.769 256.232 130.909 254.289 130.911C252.345 130.913 251.138 130.774 250.005 130.586C247.84 130.227 246.612 129.787 246.261 129.553C245.982 129.366 245.581 129.224 243.278 128.34C241.225 127.551 237.308 126.248 235.159 125.531C232.138 124.523 231.227 124.298 230.689 124.53C229.056 125.235 228.929 126.499 228.599 127.11C228.426 127.431 228.176 127.674 228.129 127.954C228.082 128.235 228.315 128.518 228.317 128.775C228.318 128.925 227.947 128.987 227.989 129.127C228.14 129.632 230.968 130.435 234.345 131.677C236.011 132.29 236.522 132.693 237.203 133.021C237.903 133.358 238.633 133.678 239.85 133.983C240.452 134.134 242.094 134.613 244.668 135.641C245.923 136.143 246.964 136.856 248.164 137.446C250.616 138.652 252.33 139.166 253.194 139.33C254.459 139.57 256.635 139.682 258.885 139.963C260.492 140.164 261.428 140.34 262.53 140.457C262.972 140.504 263.671 140.481 264.053 140.388C264.435 140.295 264.481 140.109 264.505 139.874C264.713 137.829 263.029 135.043 262.537 134.105C261.877 132.846 263.493 131.199 264.104 130.305C264.932 129.093 265.607 128.804 266.191 128.334C267.303 127.438 269.162 127.395 272.035 127.184C273.79 127.055 276.161 127.112 277.939 127.368C282.327 127.998 282.82 128.987 283.454 129.666C284.323 130.488 284.791 131.05 285.074 131.636C285.121 131.801 285.168 131.987 285.216 132.178" stroke="white" stroke-width="12" stroke-linecap="round"/>
<path d="M316.737 79.8284C316.737 79.9212 316.737 80.0141 316.645 80.0388C316.552 80.0634 316.366 80.0169 316.247 79.9234C315.793 79.5663 315.847 78.9854 315.869 78.7976C315.879 78.7138 316.124 78.7955 316.266 78.889C316.823 79.2561 316.971 79.9663 317.276 80.6467C317.531 81.2167 317.675 81.7957 317.979 82.3593C318.274 82.9046 318.612 83.4844 318.988 84.048C319.175 84.3287 319.456 84.658 319.645 84.8466C320.136 85.3375 318.943 83.9108 318.942 83.6765C318.941 83.571 319.127 83.535 319.338 83.6504C320.358 84.2079 320.441 85.0323 320.817 85.5959C321.187 86.1514 321.708 86.5803 321.943 87.1439C322.001 87.2814 322.037 87.4246 321.945 87.3803C320.634 86.75 319.929 84.8044 319.67 84.1929C319.42 83.6026 319.178 83.0678 318.989 82.7132C318.516 81.824 319.878 84.3287 320.277 85.0091C320.479 85.3528 320.724 85.5966 320.794 85.9006C320.949 86.5675 319.887 88.3506 319.272 90.0034C319.183 90.2426 319.085 90.3798 318.967 89.964C318.057 86.7416 318.288 84.3822 317.841 83.7475C317.725 83.5821 317.585 83.3971 317.49 83.3711C316.899 83.2093 317.486 86.099 317.628 87.5639C317.706 88.3646 317.91 88.974 317.934 89.3476C318.011 90.5557 316.74 91.317 316.154 92.3239C315.896 92.7672 315.479 93.4645 315.194 93.684C314.909 93.9035 314.77 93.6249 314.675 93.2956C314.477 92.6087 314.486 91.6083 314.555 90.1596C314.724 86.6573 315.189 85.0886 315.283 84.6819C315.658 83.0508 314.351 88.4913 313.76 90.4938C313.361 91.8497 313.034 92.4907 312.541 93.1711C312.124 93.7467 311.767 94.3201 311.391 95.0005C311.042 95.6338 310.501 96.1495 309.892 96.806C308.92 97.8541 308.437 98.4011 307.57 99.3151C307.084 99.827 306.982 100.512 306.374 101.285C305.479 102.422 304.827 102.904 304.098 103.561C303.518 104.085 303.042 104.734 302.643 105.297C302.228 105.884 301.916 106.422 301.541 106.986C301.165 107.55 300.698 108.111 300.274 108.675C299.867 109.216 299.245 109.985 298.609 110.411C298.067 110.774 297.928 111.488 297.624 112.052C297.289 112.671 296.245 113.689 295.513 114.444C295.033 114.94 294.739 115.569 294.364 116.133C293.988 116.697 293.521 117.165 292.911 117.843C291.569 119.338 290.847 119.839 290.423 120.355C290 120.871 289.533 121.339 289.134 121.879C288.679 122.495 287.799 123.399 287.164 124.037C286.489 124.716 285.221 124.812 284.444 124.977C284.236 125.021 283.954 125.001 283.741 125.047C283.528 125.094 283.389 125.186 283.805 125.234C285.187 125.393 286.247 125.421 286.364 125.702C286.434 125.844 286.527 125.983 286.598 126.124C286.669 126.266 286.715 126.405 286.763 126.689" stroke="white" stroke-width="12" stroke-linecap="round"/>
<path d="M257.071 138.933C257.116 139.304 258.886 142.38 260.257 144.394C260.864 145.284 261.011 146.013 261.638 147.596C262.155 148.904 263.519 151.038 264.234 152.325C265.51 154.619 266.168 155.908 267.263 158.168C268.113 159.923 269.612 162.89 270.401 164.49C271.46 166.64 271.517 167.73 271.728 168.481C272.121 169.878 272.64 171.384 273.228 172.422C273.671 173.204 274.563 174.201 275.105 174.933C275.204 175.067 275.362 175.144 275.759 174.727C277.919 172.46 278.038 171.398 278.272 169.781C278.431 168.679 278.601 166.807 278.718 165.511C278.872 163.804 278.601 161.187 278.835 158.945C278.984 157.516 279.116 156.481 279.678 154.514C280.118 152.972 280.898 151.226 281.437 149.798C282.167 147.863 283.009 146.02 283.595 144.451C284.021 143.309 284.464 141.894 284.721 141.047C284.81 140.756 285.024 140.348 285.003 139.971C284.963 139.225 283.211 138.004 281.102 136.457C279.428 135.23 278.514 134.34 277.292 133.751C277.053 133.636 276.915 133.54 276.774 133.516C275.797 133.345 274.014 136.011 273.278 137.218C272.762 138.066 272.553 140.143 272.386 141.298C272.142 142.989 272.362 145.915 272.549 147.019C272.941 149.319 273.017 150.742 273.136 152.273C273.206 152.859 273.3 153.285 273.44 153.682C273.534 153.94 273.673 154.311 273.957 154.975" stroke="white" stroke-width="12" stroke-linecap="round"/>
<path d="M278.179 169.61C279.295 170.633 281.925 173.261 282.517 174.158C283.053 174.97 283.057 175.94 283.035 176.574C283.03 176.712 282.826 176.739 282.638 176.74C281.818 176.743 281.231 176.319 280.762 176.411C278.876 176.781 281.787 181.608 282.002 182.788C282.133 183.512 282.68 184.521 282.986 185.229C283.473 186.35 284.416 187.902 284.792 188.465C285.282 189.201 286.195 190.71 286.785 192.098C287.226 193.134 287.746 194.414 288.029 195.361C288.212 195.972 288.404 196.626 288.615 197.19C288.907 197.969 289.716 198.737 290.139 199.324C290.372 199.646 290.515 200.005 290.563 200.17C290.63 200.401 290.048 199.867 289.884 199.54C289.327 198.428 289.437 196.542 289.553 195.603C289.591 195.295 289.901 195.408 290.23 195.641C291.639 196.643 291.874 197.842 292.11 198.597C292.292 199.18 292.812 199.815 293.398 200.52C294.464 201.799 294.596 203.522 295.158 205.02C295.343 205.514 295.581 205.775 295.791 205.94C296.605 206.576 296.285 203.059 296.495 202.497C296.588 202.249 296.752 202.12 296.986 202.049C297.221 201.977 297.546 201.977 297.759 202.046C298.455 202.273 298.536 203.24 298.561 204.388C298.581 205.311 298.629 206.615 298.748 207.509C298.88 208.5 299.192 209.522 299.591 210.37C300.079 211.407 300.459 211.965 300.834 212.529C301.225 213.115 301.911 213.747 302.522 214.218C302.789 214.424 303.132 214.594 303.553 214.735C304.042 214.898 304.493 214.69 304.727 214.479C305.181 214.073 305.477 213.471 305.924 212.979C306.37 212.486 306.791 211.971 307.027 211.407C307.481 210.323 307.075 208.453 306.888 207.889C306.794 207.609 306.653 207.326 306.443 207.091C306.325 206.996 306.186 206.95 306.045 206.903C305.903 206.856 305.764 206.809 305.198 206.761" stroke="white" stroke-width="12" stroke-linecap="round"/>
<path d="M312.827 204.698C312.398 204.959 312.116 205.054 311.944 205.047C311.791 205.041 312.041 204.579 312.201 204.261C312.293 204.078 312.441 203.87 312.616 203.657C312.791 203.445 312.997 203.238 313.097 203.166C313.196 203.093 313.183 203.159 313.133 203.303C313.083 203.447 312.996 203.666 312.895 203.882C312.794 204.098 312.681 204.304 312.52 204.563C312.359 204.822 312.153 205.128 312.236 205.183C312.319 205.237 312.698 205.031 313.625 204.772C314.551 204.513 316.013 204.207 316.816 204.05C317.62 203.892 317.719 203.892 317.727 203.939C317.736 203.985 317.649 204.078 317.425 204.263C317.201 204.447 316.842 204.719 316.372 205.019C315.901 205.319 315.329 205.638 314.962 205.832C314.455 206.1 314.264 206.168 314.237 206.162C313.897 206.082 314.706 205.645 314.866 205.565C314.982 205.507 315.16 205.405 315.545 205.247C315.929 205.089 316.514 204.877 316.826 204.761C317.159 204.636 317.364 204.571 317.695 204.494C317.84 204.46 317.941 204.45 318.165 204.396C318.389 204.343 318.735 204.25 318.926 204.202C319.189 204.136 319.285 204.121 319.563 204.04C319.705 203.999 319.37 204.099 318.736 204.27C318.464 204.344 318.28 204.462 318.009 204.613C317.792 204.733 317.601 204.805 317.457 204.885C317.226 205.014 317.01 205.154 316.763 205.301C316.58 205.41 316.29 205.607 316.113 205.726C315.881 205.883 315.682 206.02 315.42 206.181C315.306 206.251 315.225 206.288 315.168 206.316C315.11 206.343 315.077 206.356 315.106 206.296C315.135 206.237 315.229 206.104 315.403 205.939C315.577 205.774 315.83 205.581 316.226 205.333C316.622 205.084 317.153 204.785 317.46 204.617C317.768 204.45 317.834 204.423 317.971 204.343C318.564 203.997 318.647 203.913 318.771 203.846C319.07 203.684 319.164 203.644 319.489 203.577C319.811 203.51 319.963 203.496 320.057 203.469C320.098 203.458 320.138 203.443 320.148 203.439C320.158 203.436 320.099 203.456 319.866 203.512C319.632 203.569 319.207 203.669 318.881 203.76C318.556 203.851 318.343 203.931 317.915 204.105C317.486 204.279 316.848 204.545 316.393 204.762C315.938 204.978 315.685 205.138 315.525 205.233C315.365 205.329 315.305 205.355 315.321 205.336C315.337 205.316 315.43 205.25 315.541 205.186C315.652 205.122 315.778 205.062 316.246 204.901C316.713 204.741 317.517 204.482 317.994 204.315C318.472 204.148 318.598 204.082 318.819 203.981C319.041 203.88 319.353 203.747 319.381 203.725C319.409 203.703 319.143 203.796 318.681 203.921C318.218 204.045 317.567 204.198 317.121 204.317C316.676 204.435 316.457 204.515 316.038 204.742C315.619 204.969 315.008 205.342 314.653 205.567C314.298 205.792 314.218 205.858 314.121 205.929C314.023 206 313.91 206.073 313.719 206.233C313.528 206.394 313.262 206.64 313.002 206.92C312.742 207.199 312.496 207.505 312.343 207.712C312.017 208.152 311.968 208.396 311.884 208.591C311.804 208.776 311.78 209.106 311.756 209.344C311.739 209.517 311.726 209.787 311.706 209.911C311.661 210.185 311.585 210.257 311.508 210.538C311.47 210.675 311.424 210.794 311.414 210.881C311.396 211.035 311.41 211.317 311.397 211.448C311.382 211.593 311.35 211.74 311.33 211.828C311.309 211.919 311.229 211.989 311.159 212.069C311.141 212.089 311.129 212.11 311.108 212.13C311.088 212.15 311.062 212.17 311.048 212.131C311.002 211.998 311.087 211.722 311.211 211.391C311.274 211.222 311.368 211.066 311.592 210.791C311.816 210.516 312.175 210.131 312.483 209.829C312.791 209.527 313.037 209.321 313.2 209.192C313.534 208.927 313.652 208.834 313.75 208.743C313.926 208.579 314.223 208.311 314.307 208.18C314.392 208.047 314.478 207.968 314.542 207.881C314.611 207.787 314.826 207.613 314.942 207.478C315.003 207.405 315.096 207.337 315.217 207.226C315.306 207.144 315.405 207.068 315.485 207.011C315.566 206.941 315.62 206.894 315.66 206.843C315.687 206.813 315.726 206.773 315.768 206.732" stroke="white" stroke-width="5" stroke-linecap="round"/>
<path d="M307.328 217.81C307.368 217.81 307.548 217.703 307.826 217.506C308.223 217.224 308.436 216.998 308.486 216.917C308.57 216.783 308.637 216.596 308.781 216.297C308.841 216.173 308.892 216.098 308.939 216.018C308.988 215.934 309.126 215.79 309.245 215.655C309.268 215.628 309.295 215.602 309.019 215.731C308.744 215.86 308.166 216.146 307.821 216.336C307.477 216.527 307.384 216.613 307.12 216.807C306.856 217.001 306.424 217.3 306.165 217.474C305.906 217.648 305.832 217.688 305.655 217.825C305.478 217.962 305.199 218.195 304.995 218.394C304.792 218.594 304.672 218.753 304.597 218.869C304.522 218.984 304.495 219.051 304.379 219.224C304.262 219.398 304.056 219.677 303.933 219.838C303.782 220.035 303.703 220.132 303.613 220.273C303.42 220.573 303.273 220.703 303.226 220.851C303.214 220.89 303.219 220.931 303.229 220.952C303.245 220.984 303.379 220.932 303.74 220.812C303.999 220.726 304.419 220.612 304.702 220.524C305.12 220.393 305.327 220.288 305.491 220.174C305.71 220.022 305.824 219.864 305.967 219.784C306.282 219.609 306.569 219.502 306.839 219.448C307.042 219.408 307.382 219.368 307.576 219.334C307.813 219.293 307.878 219.247 307.925 219.217C307.948 219.202 307.959 219.18 307.816 219.372C307.674 219.565 307.375 219.97 307.137 220.355C306.9 220.74 306.734 221.093 306.638 221.287C306.494 221.582 306.389 221.737 306.245 222.014C306.044 222.402 305.892 222.67 305.861 222.774C305.802 222.978 305.737 223.3 305.71 223.632C305.693 223.85 305.737 224.039 305.77 224.247C305.802 224.44 305.824 224.723 305.864 225.019C305.883 225.154 305.885 225.208 305.901 225.262C305.91 225.289 305.925 225.315 305.938 225.293C305.989 225.207 305.999 224.929 306.072 224.474C306.115 224.209 306.212 223.886 306.336 223.555C306.461 223.225 306.62 222.899 306.706 222.721C306.86 222.401 306.959 222.161 306.982 222.17C307.085 222.212 306.993 222.455 306.949 222.679C306.891 222.98 306.825 223.201 306.815 223.321C306.787 223.655 306.724 223.906 306.681 224.157C306.649 224.342 306.61 224.416 306.6 224.55C306.591 224.666 306.55 224.772 306.513 224.919C306.454 225.153 306.395 225.242 306.321 225.379C306.218 225.571 306.207 225.691 306.13 225.926C306.106 226.014 306.1 226.081 306.096 226.148C306.093 226.182 306.086 226.215 306.059 226.289" stroke="white" stroke-width="5" stroke-linecap="round"/>
<path d="M305.737 227.257C305.764 227.257 305.797 227.263 305.834 227.284C305.931 227.336 305.918 227.498 305.958 227.605C306.008 227.737 306.039 227.874 306.113 228.139C306.147 228.445 306.16 228.579 306.177 228.726C306.18 228.787 306.18 228.886 306.16 229.009" stroke="white" stroke-width="5" stroke-linecap="round"/>
<path d="M135.673 208.94C135.816 208.321 136.152 207.359 136.189 207.108C136.252 206.671 135.412 206.591 134.956 206.435C134.435 206.257 133.949 206.135 133.661 206.063C133.344 205.985 132.919 205.824 132.14 205.644C131.17 205.42 129.707 205.512 128.642 205.44C127.588 205.369 127.046 205.033 126.091 204.865C125.435 204.749 124.167 204.84 123.436 204.805C122.233 204.746 121.818 204.553 121.506 204.481C121.432 204.464 121.362 204.433 121.385 204.457C121.804 204.889 122.558 205.318 122.87 205.559C123.155 205.779 123.493 206.014 123.817 206.218C124.181 206.447 124.5 206.756 124.812 207.021C125.136 207.296 125.387 207.572 125.663 207.86C125.928 208.136 126.203 208.435 126.777 208.914C127.221 209.285 127.615 209.8 127.917 210.15C128.139 210.407 128.645 210.902 128.995 211.372C129.473 212.012 130.059 212.532 130.957 213.441C131.472 213.963 132.323 215.009 133.44 216.163C134.557 217.318 135.886 218.576 136.666 219.343C137.661 220.321 138.068 220.9 138.535 221.545C139.444 222.803 139.963 223.514 140.168 223.85C140.49 224.378 140.683 225 140.768 225.812C141.015 228.202 140.852 228.833 140.756 229.257C140.743 229.316 140.637 229.294 140.577 229.258C140.31 229.101 140.301 228.72 140.24 228.503C140.299 228.573 140.372 228.718 140.408 228.956C140.42 229.123 140.42 229.384 140.492 229.725" stroke="white" stroke-width="5" stroke-linecap="round"/>
<path d="M140.348 229.725C140.301 229.582 140.157 229.295 140.061 228.995C140.004 228.818 139.941 228.552 139.857 228.229C139.781 227.934 139.512 226.715 139.092 224.871C138.934 224.096 138.887 223.645 138.862 223.222C138.838 222.8 138.838 222.421 138.838 222.029" stroke="white" stroke-width="5" stroke-linecap="round"/>
<path d="M131.615 78.4188C131.615 78.3479 131.639 78.2059 131.668 77.8858C131.69 77.6521 131.781 78.3935 131.623 79.0711C131.498 79.6019 131.194 80.4887 131.049 80.9661C130.872 81.5479 130.715 81.8802 130.613 82.1196C130.543 82.2835 130.382 82.4632 130.228 82.6061C130.196 82.6353 130.157 82.6419 130.115 82.6597C130.073 82.6774 130.027 82.7009 130.026 82.6132C130.023 82.3221 130.203 81.8735 130.345 81.3706C130.487 80.867 130.488 80.5545 130.506 80.554C130.646 80.5498 130.5 80.909 130.465 81.1161C130.351 81.7796 129.848 82.4753 129.83 82.6474C129.808 82.8523 129.646 83.1038 129.581 83.288C129.507 83.4953 129.221 83.9323 129.083 84.1838C128.969 84.3903 128.887 84.6819 128.81 84.8244C128.773 84.8921 128.756 84.9904 128.627 85.3613C128.517 85.6762 128.286 86.2372 128.077 86.6979C127.868 87.1586 127.68 87.4992 127.49 87.8156C127.299 88.132 127.111 88.4138 126.914 88.7939C126.718 89.174 126.518 89.6438 126.309 90.0855C126.101 90.5272 125.89 90.9265 125.722 91.2379C125.554 91.5493 125.437 91.7607 125.265 92.0047C125.093 92.2486 124.87 92.5188 124.649 92.7578C124.231 93.2101 123.882 93.4726 123.616 93.6146C123.47 93.6922 123.291 93.7566 122.965 93.9338C122.158 94.3729 121.615 94.7068 121.45 94.7718C121.231 94.8576 120.764 95.003 119.913 95.1273C119.417 95.1999 118.78 95.2165 118.406 95.2229C117.792 95.2334 117.629 95.0869 117.487 95.004C117.334 94.9153 117.214 94.6962 117.172 94.3938C117.157 94.2921 117.237 94.2093 117.325 94.1146C117.522 93.904 117.734 93.889 118.019 93.7349C118.486 93.4814 119.11 93.3074 119.324 93.1654C119.481 93.0613 119.621 92.9402 120 92.6912C120.218 92.5477 120.439 92.3942 120.611 92.2401C120.76 92.107 120.938 92.0027 121.204 91.76C121.374 91.6052 121.53 91.5045 121.691 91.3799C121.879 91.2337 122.1 91.0539 122.255 90.9526C122.491 90.7816 122.8 90.4489 123.007 90.2592C123.073 90.1997 123.143 90.1293 123.216 90.0567" stroke="white" stroke-width="5" stroke-linecap="round"/>
<path d="M208.798 32.992C208.314 32.7498 206.988 32.3274 205.404 31.9914C204.658 31.8334 203.945 31.1419 203.609 30.8082C203.226 30.4278 202.611 29.5977 202.078 29.0633C201.634 28.6181 201.094 27.8369 200.53 27.3634C200.164 27.0565 199.846 26.7115 199.694 26.2713C199.657 26.1662 199.633 26.0742 199.663 26.0127C199.825 25.6754 200.932 26.1616 201.815 26.345C202.259 26.4371 202.906 26.7388 203.44 26.9669C203.899 27.1629 204.335 27.3161 204.7 27.4376C205.092 27.5682 205.519 27.6802 206.065 27.7868C206.633 27.8978 207.127 27.9534 207.567 27.9994C208.166 28.0619 208.583 28.1664 208.994 28.257C209.491 28.3667 209.98 28.4086 210.48 28.4696C211.315 28.6217 211.893 28.6517 212.09 28.7123C212.196 28.7428 212.316 28.7728 212.622 28.8948" stroke="white" stroke-width="5" stroke-linecap="round"/>
<path d="M235.02 32.719C235.684 32.2974 237.438 31.2659 238.235 30.929C238.715 30.7264 239.115 30.7469 239.465 30.5197C239.829 30.283 240.026 29.8073 240.285 29.4426C240.533 29.0932 240.754 28.5635 241.134 28.2285C241.577 27.8374 241.967 27.3799 242.318 26.9843C242.639 26.6226 243.091 26.2873 243.396 25.8917C243.663 25.5447 243.911 25.1938 244.079 24.9963C244.645 24.3286 241.851 25.7684 240.655 26.3433C240.11 26.6052 239.665 26.7389 238.998 26.952C238.499 27.1116 237.755 27.2852 237.026 27.5133C236.368 27.7192 235.392 28.0428 234.733 28.1816C234.29 28.2751 233.929 28.4088 233.338 28.4547C232.921 28.4872 232.564 28.5909 232.108 28.6974C231.986 28.7129 231.866 28.7129 231.759 28.7279C231.652 28.7429 231.562 28.773 231.469 28.8039" stroke="white" stroke-width="5" stroke-linecap="round"/>
<path d="M313.917 71.5318C313.982 71.6303 314.049 71.796 314.107 72.0194C314.16 72.2237 314.165 73.1815 314.174 74.4997C314.177 74.9641 314.198 75.0133 314.223 74.9238C314.248 74.8342 314.281 74.6044 314.281 73.8457C314.282 73.087 314.249 71.8064 314.257 71.0236C314.267 69.993 314.447 69.4781 314.596 69.0391C314.764 68.543 314.845 68.0513 314.854 67.3802C314.858 67.0464 314.647 66.7249 314.457 66.2361C314.024 65.1242 314.016 64.916 314.099 64.3782C314.118 64.2527 314.116 64.1867 314.165 64.1939C314.336 64.2189 314.464 64.4499 314.702 64.9765C315.261 66.2079 315.575 67.12 315.608 67.2605C315.703 67.6636 315.79 68.098 315.849 68.3386C315.902 68.5578 315.907 69.2214 316.039 69.9709C316.087 70.2419 316.171 70.4363 316.42 70.9328C316.587 71.267 316.686 71.5806 316.843 71.9863C316.965 72.3016 317.15 72.7238 317.258 73.2626C317.358 73.7587 317.58 74.5437 317.731 75.22C317.783 75.4581 317.83 75.6929 317.979 75.9999C318.044 76.1343 318.062 76.2576 318.112 76.3486C318.137 76.3955 318.194 76.4233 318.244 76.4484C318.675 76.6646 319.422 76.1093 319.472 75.9772C319.612 75.6043 319.291 75.281 319.141 74.9494C318.97 74.5708 318.958 74.3188 318.859 74.0619C318.735 73.7414 318.513 73.0621 318.287 72.5365C318.13 72.1702 317.881 71.9308 317.666 71.6492C317.468 71.4184 317.317 71.2338 317.193 71.0525C317.102 70.9204 316.955 70.707 316.802 70.4871" stroke="white" stroke-width="5" stroke-linecap="round"/>
<path d="M326.902 88.049C326.803 88.0003 326.275 87.1107 326.015 86.607C325.823 86.236 325.51 85.6292 325.319 85.3142C325.001 84.7899 324.763 84.5516 324.614 84.1454C324.517 83.8824 324.497 83.6715 324.522 83.6297C324.601 83.4938 325.091 84.0332 325.687 84.5379C326.545 85.2644 326.933 85.6759 327.15 85.8759C327.467 86.17 327.846 86.5227 328.499 87.151C328.769 87.4107 329.023 87.5505 329.28 87.7416C329.557 87.9468 330.051 88.0321 330.408 88.148C330.648 88.2262 330.831 88.3306 331.03 88.4383C331.217 88.5395 331.379 88.5794 331.478 88.6455C331.577 88.7117 330.971 88.8276 329.878 88.952C329.246 89.0238 328.647 89.1092 327.927 89.3326C327 89.62 326.753 89.8062 326.554 89.9803C326.504 90.0221 326.455 90.0549 326.405 90.1047C326.355 90.1544 326.306 90.2201 326.205 90.3375" stroke="white" stroke-width="5" stroke-linecap="round"/>
<path d="M8.09091 410V316.909H44.8182C51.8788 316.909 57.8939 318.258 62.8636 320.955C67.8333 323.621 71.6212 327.333 74.2273 332.091C76.8636 336.818 78.1818 342.273 78.1818 348.455C78.1818 354.636 76.8485 360.091 74.1818 364.818C71.5152 369.545 67.6515 373.227 62.5909 375.864C57.5606 378.5 51.4697 379.818 44.3182 379.818H20.9091V364.045H41.1364C44.9242 364.045 48.0455 363.394 50.5 362.091C52.9849 360.758 54.8333 358.924 56.0455 356.591C57.2879 354.227 57.9091 351.515 57.9091 348.455C57.9091 345.364 57.2879 342.667 56.0455 340.364C54.8333 338.03 52.9849 336.227 50.5 334.955C48.0152 333.652 44.8636 333 41.0455 333H27.7727V410H8.09091ZM121.295 411.364C114.114 411.364 107.932 409.909 102.75 407C97.5985 404.061 93.6288 399.909 90.8409 394.545C88.053 389.152 86.6591 382.773 86.6591 375.409C86.6591 368.227 88.053 361.924 90.8409 356.5C93.6288 351.076 97.553 346.848 102.614 343.818C107.705 340.788 113.674 339.273 120.523 339.273C125.129 339.273 129.417 340.015 133.386 341.5C137.386 342.955 140.871 345.152 143.841 348.091C146.841 351.03 149.174 354.727 150.841 359.182C152.508 363.606 153.341 368.788 153.341 374.727V380.045H94.3864V368.045H135.114C135.114 365.258 134.508 362.788 133.295 360.636C132.083 358.485 130.402 356.803 128.25 355.591C126.129 354.348 123.659 353.727 120.841 353.727C117.902 353.727 115.295 354.409 113.023 355.773C110.78 357.106 109.023 358.909 107.75 361.182C106.477 363.424 105.826 365.924 105.795 368.682V380.091C105.795 383.545 106.432 386.53 107.705 389.045C109.008 391.561 110.841 393.5 113.205 394.864C115.568 396.227 118.371 396.909 121.614 396.909C123.765 396.909 125.735 396.606 127.523 396C129.311 395.394 130.841 394.485 132.114 393.273C133.386 392.061 134.356 390.576 135.023 388.818L152.932 390C152.023 394.303 150.159 398.061 147.341 401.273C144.553 404.455 140.947 406.939 136.523 408.727C132.129 410.485 127.053 411.364 121.295 411.364ZM203.114 340.182V354.727H161.068V340.182H203.114ZM170.614 323.455H189.977V388.545C189.977 390.333 190.25 391.727 190.795 392.727C191.341 393.697 192.098 394.379 193.068 394.773C194.068 395.167 195.22 395.364 196.523 395.364C197.432 395.364 198.341 395.288 199.25 395.136C200.159 394.955 200.856 394.818 201.341 394.727L204.386 409.136C203.417 409.439 202.053 409.788 200.295 410.182C198.538 410.606 196.402 410.864 193.886 410.955C189.22 411.136 185.129 410.515 181.614 409.091C178.129 407.667 175.417 405.455 173.477 402.455C171.538 399.455 170.583 395.667 170.614 391.091V323.455ZM232.136 410H211.045L243.182 316.909H268.545L300.636 410H279.545L256.227 338.182H255.5L232.136 410ZM230.818 373.409H280.636V388.773H230.818V373.409ZM311.477 436.182V340.182H330.568V351.909H331.432C332.28 350.03 333.508 348.121 335.114 346.182C336.75 344.212 338.871 342.576 341.477 341.273C344.114 339.939 347.386 339.273 351.295 339.273C356.386 339.273 361.083 340.606 365.386 343.273C369.689 345.909 373.129 349.894 375.705 355.227C378.28 360.53 379.568 367.182 379.568 375.182C379.568 382.97 378.311 389.545 375.795 394.909C373.311 400.242 369.917 404.288 365.614 407.045C361.341 409.773 356.553 411.136 351.25 411.136C347.492 411.136 344.295 410.515 341.659 409.273C339.053 408.03 336.917 406.47 335.25 404.591C333.583 402.682 332.311 400.758 331.432 398.818H330.841V436.182H311.477ZM330.432 375.091C330.432 379.242 331.008 382.864 332.159 385.955C333.311 389.045 334.977 391.455 337.159 393.182C339.341 394.879 341.992 395.727 345.114 395.727C348.265 395.727 350.932 394.864 353.114 393.136C355.295 391.379 356.947 388.955 358.068 385.864C359.22 382.742 359.795 379.152 359.795 375.091C359.795 371.061 359.235 367.515 358.114 364.455C356.992 361.394 355.341 359 353.159 357.273C350.977 355.545 348.295 354.682 345.114 354.682C341.962 354.682 339.295 355.515 337.114 357.182C334.962 358.848 333.311 361.212 332.159 364.273C331.008 367.333 330.432 370.939 330.432 375.091ZM392.477 436.182V340.182H411.568V351.909H412.432C413.28 350.03 414.508 348.121 416.114 346.182C417.75 344.212 419.871 342.576 422.477 341.273C425.114 339.939 428.386 339.273 432.295 339.273C437.386 339.273 442.083 340.606 446.386 343.273C450.689 345.909 454.129 349.894 456.705 355.227C459.28 360.53 460.568 367.182 460.568 375.182C460.568 382.97 459.311 389.545 456.795 394.909C454.311 400.242 450.917 404.288 446.614 407.045C442.341 409.773 437.553 411.136 432.25 411.136C428.492 411.136 425.295 410.515 422.659 409.273C420.053 408.03 417.917 406.47 416.25 404.591C414.583 402.682 413.311 400.758 412.432 398.818H411.841V436.182H392.477ZM411.432 375.091C411.432 379.242 412.008 382.864 413.159 385.955C414.311 389.045 415.977 391.455 418.159 393.182C420.341 394.879 422.992 395.727 426.114 395.727C429.265 395.727 431.932 394.864 434.114 393.136C436.295 391.379 437.947 388.955 439.068 385.864C440.22 382.742 440.795 379.152 440.795 375.091C440.795 371.061 440.235 367.515 439.114 364.455C437.992 361.394 436.341 359 434.159 357.273C431.977 355.545 429.295 354.682 426.114 354.682C422.962 354.682 420.295 355.515 418.114 357.182C415.962 358.848 414.311 361.212 413.159 364.273C412.008 367.333 411.432 370.939 411.432 375.091Z" fill="white"/>
</svg>
